<?xml version="1.0" standalone="no"?>
<!DOCTYPE svg PUBLIC "-//W3C//DTD SVG 20010904//EN"
 "http://www.w3.org/TR/2001/REC-SVG-20010904/DTD/svg10.dtd">
<svg version="1.0" xmlns="http://www.w3.org/2000/svg"
 width="1224.000000pt" height="1224.000000pt" viewBox="0 0 1224.000000 1224.000000"
 preserveAspectRatio="xMidYMid meet">
<metadata>
Created by potrace 1.14, written by Peter Selinger 2001-2017
</metadata>
<g transform="translate(0.000000,1224.000000) scale(0.100000,-0.100000)"
fill="#000000" stroke="none">
<path d="M2693 9884 c-78 -61 -187 -325 -218 -529 -40 -253 -35 -624 10 -867
3 -16 7 -38 9 -50 2 -13 7 -39 10 -58 4 -19 8 -42 10 -50 2 -8 6 -22 9 -30 3
-8 11 -40 18 -70 7 -30 22 -85 35 -122 13 -38 21 -68 18 -68 -3 0 1 -10 8 -22
6 -13 13 -27 14 -33 8 -41 166 -392 183 -405 3 -3 14 -21 24 -40 24 -49 69
-124 77 -130 3 -3 17 -23 30 -45 106 -176 394 -491 579 -634 l25 -18 -65 -64
c-35 -35 -82 -86 -104 -114 -22 -27 -42 -52 -45 -55 -29 -29 -170 -273 -170
-294 0 -7 -4 -16 -9 -21 -23 -27 -83 -237 -106 -375 -11 -62 -14 -343 -4 -410
4 -36 11 -86 14 -111 4 -25 12 -64 20 -85 37 -108 -20 -257 -146 -383 -44 -44
-140 -117 -194 -147 -11 -6 -48 -27 -82 -47 -34 -19 -64 -33 -67 -29 -3 3 -6
1 -6 -4 0 -6 -17 -16 -37 -23 -21 -8 -64 -26 -95 -42 -32 -15 -58 -26 -58 -24
0 2 -30 -7 -67 -22 -38 -14 -75 -27 -83 -28 -8 -2 -16 -4 -17 -5 -2 -2 -7 -4
-13 -5 -5 -1 -11 -3 -12 -5 -2 -1 -10 -3 -18 -5 -8 -1 -35 -9 -60 -16 -54 -15
-37 -11 -140 -35 -31 -8 -331 -11 -345 -5 -11 6 -21 7 -120 13 -240 16 -364
-112 -475 -492 -53 -179 -62 -209 -92 -277 -17 -40 -35 -73 -39 -73 -5 0 -8
-4 -6 -8 4 -17 -68 -118 -128 -178 -85 -85 -159 -132 -290 -184 -98 -39 -122
-47 -138 -44 -9 1 -17 -2 -17 -7 0 -5 -3 -8 -7 -8 -5 1 -11 0 -15 -1 -5 -1
-12 -4 -18 -5 -5 -1 -11 -3 -12 -5 -2 -1 -10 -3 -18 -5 -34 -6 -112 -47 -144
-75 -34 -30 -81 -115 -94 -167 -7 -31 -7 -133 0 -175 15 -83 117 -188 243
-249 133 -65 225 -83 415 -84 172 0 265 17 405 73 176 70 373 230 549 447 31
39 63 77 70 85 25 30 76 109 76 119 0 6 5 11 10 11 6 0 14 8 18 17 4 10 25 50
47 88 159 281 222 316 548 309 89 -2 176 -5 192 -7 17 -3 53 -7 80 -11 28 -4
64 -8 80 -11 17 -2 50 -6 75 -9 25 -4 59 -8 75 -10 25 -4 107 -15 222 -31 16
-2 44 -6 63 -9 86 -13 257 -28 343 -30 31 0 57 -5 57 -9 0 -5 5 -5 10 -2 6 4
58 8 116 10 58 2 125 6 147 10 74 12 91 15 117 20 14 3 35 8 48 11 67 14 199
62 283 104 84 42 225 124 239 140 3 3 23 17 45 32 22 15 54 39 70 53 157 135
251 226 330 320 81 98 166 174 229 205 113 57 186 43 611 -116 11 -4 25 -8 30
-9 6 -2 53 -17 105 -34 52 -17 109 -35 125 -41 37 -11 181 -47 215 -54 14 -2
32 -7 40 -10 8 -3 31 -8 50 -11 49 -7 89 -13 130 -20 169 -26 537 -27 645 -1
124 29 403 172 575 295 66 47 250 197 261 214 14 21 84 45 120 42 44 -4 65
-22 129 -115 24 -36 48 -66 52 -68 4 -2 8 -8 8 -13 0 -33 317 -409 345 -409 5
0 16 -7 26 -16 9 -8 37 -21 61 -28 66 -20 136 -1 358 99 186 83 239 107 250
110 3 1 21 8 40 17 19 8 73 29 120 47 47 18 94 37 105 41 11 4 47 18 80 30 33
12 76 28 95 35 155 61 256 99 260 100 8 1 222 85 255 100 40 18 187 77 200 80
6 1 19 6 30 10 110 44 134 52 139 47 3 -3 6 0 6 6 0 7 6 12 13 12 6 0 54 14
106 30 114 37 138 41 218 45 131 5 210 -63 323 -280 29 -55 66 -114 82 -131
33 -35 89 -55 164 -59 46 -3 74 1 164 20 55 11 163 60 220 98 56 39 170 154
170 172 0 3 11 23 25 45 14 22 22 40 19 40 -4 0 -1 6 5 14 27 33 50 166 46
269 -2 56 -6 112 -8 123 -3 12 -8 39 -11 60 -7 41 -22 96 -36 129 -18 43 -61
131 -73 149 -12 20 -100 110 -130 133 -43 34 -160 88 -215 98 -9 2 -17 4 -17
5 0 3 -48 11 -115 19 -104 14 -377 1 -430 -19 -3 -1 -8 -2 -13 -1 -10 2 -193
-38 -253 -55 -28 -8 -60 -16 -70 -18 -40 -8 -79 -19 -89 -25 -11 -6 -23 -9
-71 -16 -17 -2 -44 -9 -60 -15 -16 -6 -30 -11 -31 -11 -2 1 -4 1 -5 0 -5 -1
-42 -7 -83 -13 -22 -3 -52 -8 -67 -11 -101 -19 -200 -29 -315 -29 -51 -1 -93
-5 -93 -9 0 -5 -5 -5 -10 -2 -6 3 -38 8 -73 10 -79 5 -136 12 -184 24 -21 6
-54 14 -74 19 -34 9 -110 43 -169 77 -37 20 -124 121 -150 171 -27 55 -33 88
-33 194 -1 79 3 108 17 168 3 12 9 32 12 45 3 12 6 27 8 34 1 7 5 16 9 19 4 4
7 13 7 20 0 26 71 176 155 328 104 189 241 299 415 334 40 8 284 7 380 -1 110
-10 301 -21 370 -21 74 0 252 12 272 19 7 2 31 7 53 10 40 7 65 12 75 15 3 1
10 3 15 4 75 11 256 92 354 159 245 167 383 468 358 776 -6 77 -55 100 -267
127 -50 6 -91 13 -120 19 -14 4 -36 8 -50 10 -29 4 -60 10 -155 31 -38 8 -81
17 -95 19 -25 4 -39 7 -120 24 -92 20 -124 30 -184 60 -73 37 -90 51 -138 114
-33 43 -72 128 -82 175 -2 10 -6 24 -9 32 -3 8 -10 41 -16 72 -30 163 -174
347 -345 442 -63 35 -185 76 -240 80 -24 2 -52 6 -63 9 -10 3 -35 8 -57 12
-21 3 -41 7 -45 9 -10 7 -283 76 -321 82 -19 3 -37 7 -40 9 -6 3 -40 9 -149
24 -99 13 -307 5 -376 -14 -33 -9 -69 -18 -79 -21 -24 -4 -168 -72 -176 -82
-3 -4 -19 -17 -37 -29 -31 -22 -33 -22 -77 -6 -25 10 -46 21 -46 25 0 4 -9 8
-19 8 -11 0 -23 5 -26 10 -3 6 -12 10 -20 10 -7 0 -52 18 -101 41 -148 69
-188 79 -269 66 -50 -8 -79 -23 -141 -74 -183 -151 -260 -172 -529 -148 -142
13 -186 10 -214 -12 -46 -39 -22 -134 65 -249 123 -164 314 -279 514 -309 78
-12 224 -7 290 10 75 20 70 23 55 -34 -7 -28 -11 -51 -8 -51 3 0 1 -6 -4 -12
-6 -7 -10 -20 -10 -28 0 -18 -67 -217 -95 -280 -33 -76 -89 -182 -124 -238
-19 -29 -34 -57 -34 -62 0 -6 -3 -10 -7 -10 -5 0 -21 -20 -36 -45 -16 -25 -32
-45 -36 -45 -4 0 -15 -13 -24 -30 -45 -75 -296 -301 -412 -370 -22 -13 -42
-27 -45 -30 -15 -19 -217 -122 -325 -166 -33 -14 -69 -29 -80 -33 -78 -33
-306 -99 -420 -121 -33 -7 -67 -15 -75 -18 -8 -3 -18 -4 -23 -4 -4 1 -26 -2
-50 -7 -23 -5 -64 -12 -92 -15 -27 -3 -61 -8 -75 -10 -135 -27 -718 -42 -875
-22 -33 4 -82 9 -110 13 -27 3 -84 12 -125 20 -41 8 -86 16 -100 18 -34 6 -52
10 -140 35 -71 19 -97 28 -145 46 -11 4 -26 8 -33 10 -52 10 -296 120 -422
190 -67 37 -308 194 -332 216 -7 7 -38 33 -68 58 -111 90 -254 232 -345 341
-57 69 -134 171 -172 229 -24 36 -46 70 -50 76 -45 62 -162 292 -215 424 -65
160 -134 405 -153 545 -2 11 -6 34 -8 50 -25 139 -41 492 -25 526 4 9 5 19 2
22 -3 3 -7 41 -9 84 -7 184 -58 303 -130 303 -11 0 -35 -12 -52 -26z"/>
</g>
</svg>
