<svg fill="none" xmlns="http://www.w3.org/2000/svg" viewBox="34.46 0.28 152.67 94.58">
  <path d="M187.103 63.0143C186.724 57.7526 184.259 51.4511 169.852 55.5156C162.428 57.6266 155.572 57.7211 152.633 54.8224C152.286 54.4189 151.959 53.9983 151.654 53.5621C150.548 51.3251 151.022 47.9223 153.834 43.1647C154.443 41.8424 155.439 40.7346 156.69 39.9867C157.942 39.2389 159.391 38.886 160.848 38.9743C163.154 38.9743 165.777 39.4469 168.968 39.3839C178.983 39.1318 182.806 32.8934 182.364 27.1591C182.364 25.4262 179.962 25.9618 175.602 24.922C171.242 23.8823 167.799 24.4179 166.914 18.3055C166.387 16.5896 165.356 15.0712 163.953 13.9475C162.55 12.8238 160.841 12.1467 159.047 12.0041C155.54 11.4685 148.052 7.90814 142.46 12.3822L137.626 10.2712C134.466 9.4835 134.466 11.689 131.528 12.7918C128.59 13.8945 123.408 11.1849 124.83 14.7767C125.874 16.8642 127.634 18.5086 129.791 19.4107C131.948 20.3127 134.359 20.4125 136.583 19.6918C133.139 37.0208 116.457 40.9277 102.556 40.3921C93.68 40.0477 85.3041 36.2043 79.2677 29.706C73.2312 23.2078 70.0279 14.5859 70.3611 5.73414C70.5506 0.409417 68.8129 -1.13444 67.2016 1.6382C66.5553 2.80834 66.0666 4.05842 65.7483 5.35605C65.5903 5.89168 65.4639 6.49031 65.3375 7.12046C64.4428 13.3051 65.1917 19.6155 67.5092 25.4211C69.8268 31.2266 73.6318 36.3238 78.5441 40.2031C75.6413 42.7537 73.5907 46.1291 72.6675 49.8758C72.0324 52.5732 71.9571 55.3717 72.4463 58.0992C72.4463 58.8238 72.7307 59.2334 72.7307 59.2334C73.9313 64.9677 63.2523 68.6856 58.6079 69.5678H57.5969C56.9765 69.6159 56.3532 69.6159 55.7328 69.5678C55.0448 69.5511 54.3586 69.488 53.6792 69.3788C50.8673 69.1582 48.8136 69.5993 47.0127 76.5309C44.4852 86.2666 37.1236 84.0926 35.3543 86.8338C32.574 91.2448 36.7129 94.553 41.9892 94.8366C45.4418 95.075 48.8489 93.9424 51.4676 91.6859C60.5668 83.494 56.2067 79.8707 65.2428 80.4693C66.3802 80.4693 67.7703 80.6899 69.4132 80.9104C79.4287 82.2022 86.5375 84.2817 96.395 73.6637C96.9895 72.8406 97.6788 72.0898 98.4486 71.4267C98.953 71.0004 99.5312 70.6694 100.155 70.45C100.729 70.3417 101.318 70.3417 101.892 70.45C105.715 71.3322 114.309 76.0268 124.009 74.4514C127.811 73.0785 131.286 70.9327 134.214 68.15C134.214 68.15 135.762 66.7952 136.741 68.15C137.721 69.5048 139.364 72.0569 140.817 73.6007C144.261 77.3501 144.324 75.8062 151.654 72.8446C152.38 72.5295 153.17 72.2144 154.055 71.8993C173.012 64.9678 172.727 62.7307 176.55 70.2925C177.245 71.6788 179.71 71.8363 182.016 70.8911C183.613 70.3161 184.976 69.2336 185.895 67.8103C186.814 66.387 187.238 64.7018 187.103 63.0143Z" fill="#FBA919"></path>
</svg>